<svg xmlns="http://www.w3.org/2000/svg" viewBox="0 0 32 32" width="18" height="18" style="fill: #101010;border-color: rgba(187,187,187,1);border-width: 0px;border-style: solid" filter="none"><path d="M22.993 26.663l-0.111 0.003c0.037 0 0.074-0.001 0.111-0.003zM22.993 26.663c-0.037 0.002-0.074 0.003-0.111 0.003l0.111-0.003zM23.999 16l-0.343-7.222c-0.059-0.937-0.836-1.667-1.774-1.667h-13.771c-0.939 0-1.716 0.73-1.774 1.667l-1 16c-0.002 0.033-0.003 0.072-0.003 0.111 0 0 0 0 0 0v0c0 0.982 0.796 1.778 1.778 1.778h8.889v-1.778h-8.889l1-16h13.771l0.342 7.195 1.776-0.084zM23.999 16l-0.343-7.222c-0.059-0.937-0.836-1.667-1.774-1.667h-13.771c-0.939 0-1.716 0.73-1.774 1.667l-1 16c-0.002 0.033-0.003 0.072-0.003 0.111 0 0 0 0 0 0v0c0 0.982 0.796 1.778 1.778 1.778h8.889v-1.778h-8.889l1-16h13.771l0.342 7.195 1.776-0.084z"></path><path d="M24.966 18.667c1.931 0 3.479 1.644 3.479 3.639-0.001 0.081-0.001 0.084-0.004 0.134l0 0.032 0 0.007c0 0.351-0.073 0.707-0.208 1.069-0.052 0.152-0.118 0.304-0.286 0.601 0.043-0.061 0.045-0.063 0.051-0.074l0.001-0.001c-0.001 0.001 0-0.001 0.028-0.052l-0.020 0.038c0.004-0.006 0.004-0.006-0.014 0.030-0.042 0.083-0.083 0.16-0.111 0.2-0.081 0.142-0.148 0.251-0.219 0.358l0.015-0.024c-0.401 0.613-0.947 1.245-1.605 1.89-0.46 0.45-0.949 0.882-1.445 1.288-0.294 0.241-0.846 0.668-0.696 0.549-0.237 0.188-0.527 0.289-0.826 0.289-0.29 0-0.572-0.094-0.81-0.276l-0.015-0.011 0.004 0.003c0.14 0.112-0.41-0.313-0.7-0.55-0.495-0.404-0.983-0.833-1.441-1.282-0.679-0.664-1.238-1.315-1.641-1.948-0.184-0.288-0.334-0.572-0.45-0.855-0.008-0.020-0.008-0.020-0.013-0.033-0.165-0.417-0.252-0.82-0.252-1.208-0.005-0.068-0.007-0.111-0.007-0.171 0-1.996 1.548-3.639 3.479-3.639 0.664 0 1.305 0.202 1.854 0.567 0.549-0.366 1.19-0.567 1.855-0.567zM24.966 20.444c-0.443 0-0.875 0.198-1.196 0.551l-0.656 0.723-0.658-0.721c-0.324-0.355-0.756-0.553-1.199-0.553-0.925 0-1.701 0.824-1.701 1.861 0 0.003 0.002 0.076 0.005 0.217 0.001-0.010 0.001-0.011 0.002-0.038 0 0.14 0.040 0.325 0.127 0.544 0.008 0.021 0.011 0.029 0.013 0.033 0.071 0.171 0.17 0.357 0.297 0.556 0.32 0.502 0.796 1.056 1.385 1.633 0.417 0.408 0.866 0.803 1.322 1.175 0.109 0.089 0.262 0.21 0.397 0.316 0.135-0.106 0.289-0.228 0.398-0.318 0.457-0.374 0.908-0.772 1.327-1.182 0.574-0.562 1.040-1.101 1.361-1.592 0.054-0.083 0.103-0.163 0.173-0.284 0.009-0.013 0.013-0.022 0.040-0.072 0.016-0.035 0.016-0.035 0.032-0.064l0.029-0.054c0.032-0.062 0.064-0.138 0.092-0.217l0.004-0.014c0.070-0.189 0.102-0.336 0.104-0.457l0-0.012c0 0.009 0 0.009-0-0.094 0.002-0.028 0.002-0.028 0.003-0.045 0.001-0.023 0.001-0.023 0.001-0.033 0-1.036-0.777-1.861-1.701-1.861zM16 24.889c0.491 0 0.889 0.398 0.889 0.889s-0.398 0.889-0.889 0.889-0.889-0.398-0.889-0.889c0-0.491 0.398-0.889 0.889-0.889zM23.111 15.111c0.491 0 0.889 0.398 0.889 0.889s-0.398 0.889-0.889 0.889-0.889-0.398-0.889-0.889 0.398-0.889 0.889-0.889zM15.111 1.778c3.038 0 5.5 2.462 5.5 5.5h-1.778c0-2.056-1.666-3.722-3.722-3.722s-3.722 1.667-3.722 3.722h-1.778c0-3.038 2.462-5.5 5.5-5.5z"></path></svg>